<svg width="12" height="12" viewBox="0 0 12 12" fill="none" xmlns="http://www.w3.org/2000/svg">
<circle cx="6" cy="6" r="6" fill="#E4B40A"/>
<path d="M5.76935 8.72725C5.73316 8.72725 5.7006 8.71311 5.67165 8.68483C5.64632 8.65654 5.63366 8.62018 5.63366 8.57574V8.15755C5.36591 8.12119 5.13615 8.04442 4.94438 7.92725C4.75623 7.81008 4.61331 7.66866 4.51561 7.50301C4.42154 7.33331 4.37088 7.15351 4.36365 6.96361C4.36365 6.93129 4.3745 6.90301 4.39621 6.87877C4.42154 6.85048 4.45049 6.83634 4.48305 6.83634H5.1669C5.21032 6.83634 5.2447 6.84644 5.27002 6.86664C5.29897 6.88281 5.32792 6.90907 5.35686 6.94543C5.4039 7.05048 5.47808 7.13735 5.57939 7.20604C5.68432 7.27473 5.82543 7.30907 6.00272 7.30907C6.20897 7.30907 6.36636 7.2727 6.47491 7.19998C6.58346 7.12725 6.63773 7.02826 6.63773 6.90301C6.63773 6.81412 6.60879 6.74139 6.55089 6.68483C6.49662 6.62826 6.40978 6.57776 6.29038 6.53331C6.17097 6.48887 5.99368 6.43836 5.75849 6.3818C5.32068 6.28483 4.99504 6.13735 4.78156 5.93937C4.56808 5.74139 4.46134 5.46058 4.46134 5.09695C4.46134 4.77371 4.56627 4.49897 4.77613 4.2727C4.98599 4.0424 5.27183 3.90099 5.63366 3.84846V3.42422C5.63366 3.37978 5.64632 3.34341 5.67165 3.31513C5.7006 3.28685 5.73316 3.27271 5.76935 3.27271H6.21982C6.25962 3.27271 6.29219 3.28685 6.31751 3.31513C6.34284 3.34341 6.35551 3.37978 6.35551 3.42422V3.86058C6.59431 3.90503 6.79874 3.98988 6.9688 4.11513C7.14248 4.23634 7.27455 4.37574 7.365 4.53331C7.45546 4.69089 7.50431 4.84644 7.51154 4.99998C7.51154 5.0323 7.50069 5.0626 7.47898 5.09089C7.45727 5.11513 7.43013 5.12725 7.39757 5.12725H6.68115C6.63773 5.12725 6.60155 5.11917 6.5726 5.10301C6.54727 5.08685 6.52376 5.06058 6.50205 5.02422C6.48034 4.93129 6.42064 4.8525 6.32294 4.78786C6.22887 4.72321 6.11127 4.69089 5.97016 4.69089C5.80734 4.69089 5.68251 4.72321 5.59567 4.78786C5.50883 4.8525 5.46541 4.94745 5.46541 5.0727C5.46541 5.15755 5.48893 5.22826 5.53597 5.28483C5.58662 5.34139 5.66623 5.39392 5.77477 5.4424C5.88694 5.48685 6.04614 5.53331 6.25239 5.5818C6.58888 5.65048 6.85664 5.73735 7.05564 5.8424C7.25465 5.94341 7.40119 6.07473 7.49526 6.23634C7.58934 6.39796 7.63637 6.60402 7.63637 6.85452C7.63637 7.21008 7.52059 7.50099 7.28902 7.72725C7.05745 7.95351 6.74628 8.09493 6.35551 8.15149V8.57574C6.35551 8.62018 6.34284 8.65654 6.31751 8.68483C6.29219 8.71311 6.25962 8.72725 6.21982 8.72725H5.76935Z" fill="white"/>
</svg>
