<svg width="35" height="33" viewBox="0 0 35 33" fill="none" xmlns="http://www.w3.org/2000/svg">
<rect x="0.2" y="0.2" width="34.6" height="32.6" rx="3.8" stroke="#D0D0D0" stroke-width="0.4"/>
<path fill-rule="evenodd" clip-rule="evenodd" d="M9.15775 7.66075H17.6697C17.9409 7.66075 18.1607 7.88061 18.1607 8.15183V15.1996C18.2742 15.2121 18.3839 15.2375 18.4881 15.2744V8.15183C18.4881 7.69981 18.1217 7.33337 17.6697 7.33337H9.15775C8.70573 7.33337 8.33929 7.69981 8.33929 8.15183V16.6637C8.33929 17.1157 8.70573 17.4822 9.15775 17.4822H16.7719C16.7043 17.3812 16.6488 17.2714 16.6076 17.1548H9.15775C8.88653 17.1548 8.66668 16.9349 8.66668 16.6637V8.15183C8.66668 7.88061 8.88653 7.66075 9.15775 7.66075ZM12.4316 10.1161C12.4316 10.6585 11.9918 11.0983 11.4494 11.0983C10.907 11.0983 10.4673 10.6585 10.4673 10.1161C10.4673 9.57369 10.907 9.13397 11.4494 9.13397C11.9918 9.13397 12.4316 9.57369 12.4316 10.1161ZM12.1042 10.1161C12.1042 10.4777 11.811 10.7709 11.4494 10.7709C11.0878 10.7709 10.7947 10.4777 10.7947 10.1161C10.7947 9.75449 11.0878 9.46135 11.4494 9.46135C11.811 9.46135 12.1042 9.75449 12.1042 10.1161ZM15.378 11.0983C15.9204 11.0983 16.3601 10.6585 16.3601 10.1161C16.3601 9.57369 15.9204 9.13397 15.378 9.13397C14.8356 9.13397 14.3958 9.57369 14.3958 10.1161C14.3958 10.6585 14.8356 11.0983 15.378 11.0983ZM15.378 10.7709C15.7396 10.7709 16.0327 10.4777 16.0327 10.1161C16.0327 9.75449 15.7396 9.46135 15.378 9.46135C15.0164 9.46135 14.7232 9.75449 14.7232 10.1161C14.7232 10.4777 15.0164 10.7709 15.378 10.7709ZM14.3958 12.4078C14.3958 12.9502 13.9561 13.3899 13.4137 13.3899C12.8713 13.3899 12.4316 12.9502 12.4316 12.4078C12.4316 11.8654 12.8713 11.4256 13.4137 11.4256C13.9561 11.4256 14.3958 11.8654 14.3958 12.4078ZM14.0685 12.4078C14.0685 12.7694 13.7753 13.0625 13.4137 13.0625C13.0521 13.0625 12.7589 12.7694 12.7589 12.4078C12.7589 12.0462 13.0521 11.753 13.4137 11.753C13.7753 11.753 14.0685 12.0462 14.0685 12.4078ZM11.4494 15.6816C11.9918 15.6816 12.4316 15.2419 12.4316 14.6994C12.4316 14.157 11.9918 13.7173 11.4494 13.7173C10.907 13.7173 10.4673 14.157 10.4673 14.6994C10.4673 15.2419 10.907 15.6816 11.4494 15.6816ZM11.4494 15.3542C11.811 15.3542 12.1042 15.0611 12.1042 14.6994C12.1042 14.3378 11.811 14.0447 11.4494 14.0447C11.0878 14.0447 10.7947 14.3378 10.7947 14.6994C10.7947 15.0611 11.0878 15.3542 11.4494 15.3542ZM16.3601 14.6994C16.3601 15.2419 15.9204 15.6816 15.378 15.6816C14.8356 15.6816 14.3958 15.2419 14.3958 14.6994C14.3958 14.157 14.8356 13.7173 15.378 13.7173C15.9204 13.7173 16.3601 14.157 16.3601 14.6994ZM16.0327 14.6994C16.0327 15.0611 15.7396 15.3542 15.378 15.3542C15.0164 15.3542 14.7232 15.0611 14.7232 14.6994C14.7232 14.3378 15.0164 14.0447 15.378 14.0447C15.7396 14.0447 16.0327 14.3378 16.0327 14.6994ZM17.6697 15.8453H26.1816C26.4528 15.8453 26.6726 16.0651 26.6726 16.3363V24.8482C26.6726 25.1194 26.4528 25.3393 26.1816 25.3393H17.6697C17.3985 25.3393 17.1786 25.1194 17.1786 24.8482V16.3363C17.1786 16.0651 17.3985 15.8453 17.6697 15.8453ZM16.8512 16.3363C16.8512 15.8843 17.2176 15.5179 17.6697 15.5179H26.1816C26.6336 15.5179 27 15.8843 27 16.3363V24.8482C27 25.3002 26.6336 25.6667 26.1816 25.6667H17.6697C17.2176 25.6667 16.8512 25.3002 16.8512 24.8482V16.3363ZM20.9435 18.3006C20.9435 18.8431 20.5038 19.2828 19.9614 19.2828C19.4189 19.2828 18.9792 18.8431 18.9792 18.3006C18.9792 17.7582 19.4189 17.3185 19.9614 17.3185C20.5038 17.3185 20.9435 17.7582 20.9435 18.3006ZM20.6161 18.3007C20.6161 18.6623 20.3229 18.9554 19.9613 18.9554C19.5997 18.9554 19.3066 18.6623 19.3066 18.3007C19.3066 17.9391 19.5997 17.6459 19.9613 17.6459C20.3229 17.6459 20.6161 17.9391 20.6161 18.3007ZM23.8899 19.2828C24.4323 19.2828 24.8721 18.8431 24.8721 18.3006C24.8721 17.7582 24.4323 17.3185 23.8899 17.3185C23.3475 17.3185 22.9078 17.7582 22.9078 18.3006C22.9078 18.8431 23.3475 19.2828 23.8899 19.2828ZM23.8899 18.9554C24.2516 18.9554 24.5447 18.6623 24.5447 18.3007C24.5447 17.9391 24.2516 17.6459 23.8899 17.6459C23.5283 17.6459 23.2352 17.9391 23.2352 18.3007C23.2352 18.6623 23.5283 18.9554 23.8899 18.9554ZM20.9435 22.884C20.9435 23.4264 20.5038 23.8661 19.9614 23.8661C19.4189 23.8661 18.9792 23.4264 18.9792 22.884C18.9792 22.3415 19.4189 21.9018 19.9614 21.9018C20.5038 21.9018 20.9435 22.3415 20.9435 22.884ZM20.6161 22.884C20.6161 23.2456 20.3229 23.5387 19.9613 23.5387C19.5997 23.5387 19.3066 23.2456 19.3066 22.884C19.3066 22.5223 19.5997 22.2292 19.9613 22.2292C20.3229 22.2292 20.6161 22.5223 20.6161 22.884ZM23.8899 23.8661C24.4323 23.8661 24.8721 23.4264 24.8721 22.884C24.8721 22.3415 24.4323 21.9018 23.8899 21.9018C23.3475 21.9018 22.9078 22.3415 22.9078 22.884C22.9078 23.4264 23.3475 23.8661 23.8899 23.8661ZM23.8899 23.5387C24.2516 23.5387 24.5447 23.2456 24.5447 22.884C24.5447 22.5223 24.2516 22.2292 23.8899 22.2292C23.5283 22.2292 23.2352 22.5223 23.2352 22.884C23.2352 23.2456 23.5283 23.5387 23.8899 23.5387Z" fill="#434343"/>
</svg>
