<svg width="36" height="36" viewBox="0 0 36 36" fill="none" xmlns="http://www.w3.org/2000/svg">
<circle cx="18" cy="18" r="18" fill="white"/>
<path fill-rule="evenodd" clip-rule="evenodd" d="M18 13C19.6569 13 21 11.6569 21 10C21 8.34315 19.6569 7 18 7C16.3431 7 15 8.34315 15 10C15 11.6569 16.3431 13 18 13ZM5 28C5 28.9423 5.10025 29.8611 5.29066 30.7465C8.54654 33.9929 13.0389 36 18 36C22.9611 36 27.4535 33.9929 30.7093 30.7465C30.8997 29.8611 31 28.9423 31 28C31 20.8203 25.1797 15 18 15C10.8203 15 5 20.8203 5 28Z" fill="#A4A4A4"/>
</svg>
